# xmcd
#
# Track frame offsets: 
#        150
#        22564
#        35688
#        53859
#        71589
#        87282
#        106209
#        124012
#        140486
#        159062
#        173264
#        189761
#        207510
#        226512
#        248051
#        263296
#        280061
#        297868
#        316313
#        332360
#
# Disc length: 4671 seconds
#
# Revision: 3
# Processed by: cddbd v1.5.2PL0 Copyright (c) Steve Scherf et al.
# Submitted via: ExactAudioCopy v1.1
#
DISCID=f4123d14
DTITLE=Various Artist - US Country Charts 2003 Vol.2
DYEAR=2003
DGENRE=country
TTITLE0=covered from Kid Rock and Sheryl Crow - Picture
TTITLE1=covered from Shania Twain - Up
TTITLE2=covered from Martina McBride - Concrete Angel
TTITLE3=covered from Darryl Worley - Have you forgotten
TTITLE4=covered from Lonestar - My front porch looking in
TTITLE5=covered from Keith Urban - Raining on Sunday
TTITLE6=covered from Brooks and Dunn - Red dirt road
TTITLE7=covered from Gary Allan - The One
TTITLE8=covered from Montgomery Gentry - Speed
TTITLE9=covered from George Strait - Tell me something bad about USA
TTITLE10=covered from Alan Jackson - That'd be alright
TTITLE11=covered from Kenny Chesney - Big star
TTITLE12=covered from Tim McGraw - She's my kind of rain
TTITLE13=covered from Shania Twain - Forever and for always
TTITLE14=covered from Toby Keith and Willie Nelson - Beer for my horses
TTITLE15=covered from Diamond Rio - Beautiful mess
TTITLE16=covered from Sara Evans - I keep looking
TTITLE17=covered from Tim McGraw - Red rag top
TTITLE18=covered from Rascal Flatts - These days
TTITLE19=covered from Toby Keith - Who's your daddy
EXTD=
EXTT0=
EXTT1=
EXTT2=
EXTT3=
EXTT4=
EXTT5=
EXTT6=
EXTT7=
EXTT8=
EXTT9=
EXTT10=
EXTT11=
EXTT12=
EXTT13=
EXTT14=
EXTT15=
EXTT16=
EXTT17=
EXTT18=
EXTT19=
PLAYORDER=
